<svg width="111" height="69" viewBox="0 0 111 69" fill="none" xmlns="http://www.w3.org/2000/svg">
<path d="M0.0084832 26.1681C0.118825 26.236 64.1512 68.5225 64.1512 68.5225L110.843 41.5735L48.211 0L0 26.1681H0.0084832Z" fill="#F47929"/>
<path opacity="0.9" d="M52.2693 37.732L54.1873 37.466C54.2713 38.012 54.5233 38.572 55.3353 38.572C56.5813 38.572 56.8753 36.822 56.8753 35.87V35.8C56.4553 36.388 55.6853 36.626 54.9853 36.626C53.2633 36.626 52.2693 35.436 52.2693 33.658C52.2693 31.922 53.3753 30.396 55.4753 30.396C57.8833 30.396 58.8073 32.412 58.8073 34.834C58.8073 37.27 58.0233 40.126 55.1113 40.126C53.7533 40.126 52.5073 39.342 52.2693 37.732ZM54.0893 33.49C54.0893 34.33 54.4813 35.114 55.4193 35.114C56.3013 35.114 56.7353 34.484 56.7353 33.476C56.7353 32.496 56.1473 31.922 55.4053 31.922C54.4953 31.922 54.0893 32.748 54.0893 33.49Z" fill="#200000"/>
</svg>
