<svg width="152" height="84" viewBox="0 0 152 84" fill="none" xmlns="http://www.w3.org/2000/svg">
<path d="M0 27.4077L95.2615 83.1L151.108 44.3308L109.923 20.2154L94.2539 30.8692L41.2615 0L0 27.4077Z" fill="#15E8BF"/>
<path opacity="0.9" d="M113.628 49.9688H111.906V44.1587C111.906 43.5147 111.598 43.4027 111.22 43.4027H109.596V42.3247H109.778C110.38 42.3247 110.898 42.3107 111.416 41.9327C111.92 41.5687 112.088 41.0927 112.228 40.5187H113.628V49.9688ZM124.093 45.2087C124.093 49.0867 122.273 50.0948 120.621 50.0948C117.331 50.0948 117.191 46.7487 117.191 45.1947C117.191 41.7368 118.675 40.3647 120.705 40.3647C122.483 40.3647 124.093 41.5967 124.093 45.2087ZM118.997 45.2927C118.997 46.3427 118.997 48.5407 120.649 48.5407C121.993 48.5407 122.273 47.1967 122.273 45.2367C122.273 43.8787 122.217 41.9187 120.677 41.9187C119.263 41.9187 118.997 43.5287 118.997 45.2927Z" fill="#200000"/>
</svg>
