<svg width="82" height="51" viewBox="0 0 82 51" fill="none" xmlns="http://www.w3.org/2000/svg">
<path d="M81.8846 21.2C69.6462 14.1308 57.4 7.06154 45.1616 0C44.6923 0.323077 44.1692 0.630766 43.6923 0.946151C42.4308 1.77692 41.1692 2.60769 39.9077 3.44615C36.0692 5.98461 32.2231 8.51538 28.3846 11.0538L15.0539 19.8538C11.4 22.2692 7.74615 24.6769 4.08461 27.0923C2.72308 27.9923 1.36154 28.8923 0 29.7923C1.36154 30.5769 2.73078 31.3692 4.10001 32.1615C10.8846 36.0769 17.6769 40 24.4615 43.9154C28.5308 46.2615 32.6 48.6154 36.6692 50.9615C37.1077 50.6462 37.6846 50.3615 38.1 50.0846C39.3769 49.2461 40.6539 48.4077 41.9308 47.5615C45.7692 45.0231 49.6154 42.4846 53.4615 39.9461C57.9077 37.0154 62.3462 34.0846 66.7923 31.1538C70.4616 28.7308 74.1385 26.3077 77.8077 23.8846C79.1616 22.9923 80.5231 22.0923 81.8846 21.1923" fill="#15E8BF"/>
<path opacity="0.9" d="M39.9047 26.24C39.9047 30.118 38.0847 31.126 36.4327 31.126C33.1427 31.126 33.0027 27.78 33.0027 26.226C33.0027 22.768 34.4867 21.396 36.5167 21.396C38.2947 21.396 39.9047 22.628 39.9047 26.24ZM34.8087 26.324C34.8087 27.374 34.8087 29.572 36.4607 29.572C37.8047 29.572 38.0847 28.228 38.0847 26.268C38.0847 24.91 38.0287 22.95 36.4887 22.95C35.0747 22.95 34.8087 24.56 34.8087 26.324ZM43.986 26.73V25.26H44.588C45.008 25.26 45.428 25.218 45.694 24.826C45.89 24.546 45.89 24.252 45.89 24.154C45.89 23.454 45.4 22.95 44.686 22.95C44.434 22.95 43.37 23.02 43.328 24.532L41.48 24.14C41.55 23.482 42.152 21.396 44.742 21.396C45.568 21.396 47.752 21.774 47.752 23.902C47.752 24.28 47.682 25.54 46.184 25.932C47.024 26.1 47.976 26.744 47.976 28.214C47.976 30.146 46.366 31.126 44.588 31.126C44.322 31.126 42.95 31.098 42.138 30.272C41.298 29.432 41.298 28.2 41.298 27.906H43.16C43.146 27.948 43.132 28.088 43.132 28.228C43.132 28.424 43.23 29.6 44.616 29.6C45.666 29.6 46.1 28.816 46.1 28.102C46.1 27.962 46.086 27.598 45.848 27.262C45.54 26.814 45.05 26.73 44.546 26.73H43.986Z" fill="#200000"/>
</svg>
