<svg width="820" height="676" viewBox="0 0 820 676" fill="none" xmlns="http://www.w3.org/2000/svg">
<path d="M155.631 197.84C156.078 198.094 156.978 197.987 156.931 197.517C156.855 196.702 156.77 195.887 156.678 195.071C158.001 195.071 159.324 195.071 160.639 195.071C161.408 195.071 161.524 194.502 161.078 194.248C160.947 194.171 160.77 194.125 160.547 194.125C158.962 194.125 157.393 194.133 155.816 194.133C155.401 194.133 155.07 194.356 155.093 194.61C155.201 195.579 155.293 196.548 155.393 197.525C155.408 197.663 155.501 197.771 155.631 197.848V197.84Z" fill="#200000"/>
<path d="M159.301 198.887C158.539 198.887 158.424 199.456 158.87 199.71C159.001 199.787 159.178 199.833 159.401 199.833C160.985 199.833 162.555 199.825 164.131 199.825C164.547 199.825 164.878 199.602 164.855 199.348C164.747 198.379 164.655 197.41 164.555 196.433C164.539 196.294 164.447 196.187 164.316 196.11C163.87 195.856 162.962 195.963 163.016 196.433C163.101 197.24 163.185 198.056 163.27 198.871C161.947 198.871 160.624 198.871 159.301 198.879V198.887Z" fill="#200000"/>
<path d="M140.131 208.61C140.901 208.61 141.016 208.048 140.57 207.787C140.439 207.71 140.262 207.663 140.031 207.663C138.455 207.663 136.878 207.663 135.301 207.671C134.893 207.671 134.562 207.887 134.585 208.148C134.693 209.117 134.785 210.087 134.885 211.063C134.901 211.202 134.993 211.31 135.124 211.387C135.57 211.64 136.47 211.533 136.424 211.063C136.347 210.248 136.262 209.433 136.17 208.617C137.493 208.617 138.816 208.617 140.139 208.61H140.131Z" fill="#200000"/>
<path d="M144.339 212.894C144.239 211.917 144.139 210.948 144.039 209.979C144.024 209.84 143.931 209.733 143.801 209.656C143.355 209.402 142.455 209.51 142.501 209.979C142.585 210.794 142.67 211.61 142.755 212.425C141.431 212.425 140.108 212.425 138.785 212.433C138.024 212.433 137.908 212.994 138.354 213.256C138.485 213.333 138.662 213.379 138.885 213.379C140.462 213.379 142.039 213.371 143.616 213.371C144.031 213.371 144.362 213.148 144.331 212.894H144.339Z" fill="#200000"/>
<path d="M768.185 379.856C768.508 379.64 768.385 379.363 768.101 379.202C767.816 379.04 767.362 378.979 767.031 379.194C766.231 379.725 678.178 437.81 677.055 438.602C677.008 438.633 676.954 438.671 676.901 438.702C676.578 438.917 676.701 439.194 676.985 439.356C677.278 439.525 677.724 439.579 678.054 439.363C678.854 438.833 766.901 380.748 768.031 379.956C768.078 379.925 768.131 379.887 768.185 379.856Z" fill="#200000"/>
<path d="M774.016 383.217C774.339 383.002 774.216 382.725 773.924 382.556C773.631 382.387 773.185 382.333 772.854 382.548C772.054 383.079 684.008 441.163 682.878 441.956C682.831 441.994 682.778 442.025 682.724 442.056C682.401 442.271 682.524 442.548 682.816 442.717C683.108 442.887 683.555 442.94 683.885 442.725C684.685 442.194 685.485 441.663 686.293 441.133C688.478 439.694 772.731 384.11 773.862 383.31C773.908 383.271 773.962 383.24 774.016 383.21V383.217Z" fill="#200000"/>
<path d="M779.755 385.925C779.462 385.756 779.016 385.702 778.685 385.917C777.885 386.448 689.839 444.533 688.708 445.325C688.662 445.363 688.608 445.394 688.555 445.425C688.231 445.64 688.355 445.917 688.639 446.079C688.931 446.248 689.378 446.302 689.708 446.087C690.508 445.556 778.562 387.471 779.685 386.679L779.839 386.579C780.162 386.363 780.039 386.087 779.755 385.925Z" fill="#200000"/>
<path d="M646.393 460.271C646.716 460.056 646.593 459.779 646.308 459.617C646.016 459.448 645.57 459.394 645.239 459.61C643.893 460.502 497.578 557.056 495.678 558.356C495.593 558.41 495.508 558.471 495.424 558.525C495.101 558.74 495.224 559.017 495.508 559.179C495.801 559.348 496.247 559.402 496.578 559.187C497.924 558.302 644.239 461.74 646.139 460.44C646.224 460.387 646.308 460.325 646.393 460.271Z" fill="#200000"/>
<path d="M652.224 463.633C652.547 463.417 652.424 463.14 652.131 462.979C651.839 462.817 651.393 462.756 651.062 462.971C649.716 463.863 503.408 560.417 501.501 561.717C501.416 561.779 501.331 561.833 501.247 561.887C500.924 562.102 501.047 562.379 501.331 562.54C501.624 562.71 502.078 562.763 502.401 562.548C503.747 561.663 650.055 465.102 651.962 463.802C652.039 463.74 652.131 463.687 652.216 463.633H652.224Z" fill="#200000"/>
<path d="M658.047 467.002C658.37 466.787 658.247 466.51 657.962 466.348C657.67 466.179 657.224 466.125 656.893 466.34C655.547 467.233 509.239 563.787 507.331 565.087C507.247 565.148 507.162 565.194 507.078 565.256C506.755 565.471 506.878 565.748 507.162 565.91C507.455 566.079 507.901 566.133 508.231 565.917C509.578 565.033 655.893 468.471 657.793 467.171C657.878 467.117 657.962 467.056 658.047 467.002Z" fill="#200000"/>
<path d="M663.878 470.363C664.208 470.148 664.078 469.871 663.793 469.71C663.501 469.54 663.054 469.487 662.724 469.702C661.378 470.594 515.062 567.148 513.162 568.448C513.078 568.502 512.993 568.563 512.908 568.617C512.585 568.833 512.708 569.11 512.993 569.271C513.285 569.44 513.731 569.494 514.062 569.279C515.408 568.394 661.724 471.833 663.624 470.533C663.708 470.479 663.793 470.425 663.878 470.363Z" fill="#200000"/>
<path d="M669.624 473.079C669.331 472.91 668.885 472.856 668.555 473.071C667.208 473.963 520.893 570.517 518.993 571.817C518.908 571.879 518.824 571.933 518.739 571.987C518.416 572.202 518.539 572.479 518.824 572.64C519.116 572.81 519.562 572.863 519.893 572.648C521.239 571.763 667.554 475.202 669.454 473.902C669.539 473.848 669.624 473.787 669.708 473.733C670.039 473.517 669.908 473.24 669.624 473.079Z" fill="#200000"/>
<path d="M616.455 530.348C616.324 530.271 616.147 530.225 615.924 530.225C613.208 530.225 610.493 530.233 607.785 530.24C607.37 530.24 607.039 530.464 607.07 530.717C607.247 532.387 607.416 534.063 607.585 535.733C607.601 535.871 607.693 535.979 607.824 536.056C608.27 536.31 609.17 536.202 609.124 535.725C608.97 534.21 608.808 532.694 608.655 531.179C611.108 531.179 613.57 531.171 616.031 531.163C616.801 531.163 616.916 530.602 616.47 530.348H616.455Z" fill="#200000"/>
<path d="M480.947 471.363C482.208 470.533 483.224 469.856 483.908 469.41C483.054 469.971 481.893 470.74 480.947 471.363Z" fill="#200000"/>
<path d="M640.97 457.117C651.355 450.256 762.608 376.81 762.747 376.717C763.024 376.533 762.985 376.233 762.678 376.048C754.462 371.31 746.247 366.563 738.039 361.825C729.116 356.671 720.201 351.525 711.278 346.371C695.801 337.433 680.324 328.502 664.839 319.556C644.939 308.071 625.047 296.579 605.147 285.094C582.501 272.017 559.862 258.948 537.224 245.879C514.078 232.517 490.931 219.156 467.793 205.794C445.77 193.079 423.754 180.371 401.739 167.656C383.085 156.887 287.801 101.856 285.639 100.625C285.354 100.463 285.07 100.302 284.785 100.133C284.47 99.9558 283.978 99.9558 283.701 100.133C275.608 105.471 220.585 141.802 201.17 154.625C192.562 160.31 174.747 172.071 154.87 185.194C154.87 185.194 40.1391 260.948 40.1083 260.963C39.8314 261.148 39.8699 261.448 40.1776 261.633C44.0391 263.863 47.893 266.087 51.7545 268.317C62.2468 274.371 72.7391 280.433 83.2314 286.487C86.3699 288.302 162.631 332.325 172.839 338.225C168.455 335.694 164.062 333.156 159.678 330.625C164.208 333.24 168.731 335.856 173.262 338.471C177.385 340.848 181.508 343.233 185.624 345.61C186.955 346.379 188.255 347.202 189.608 347.987C190.278 348.371 190.962 348.748 191.67 349.102C190.062 348.171 188.447 347.24 186.839 346.31C188.485 347.256 190.124 348.21 191.77 349.156C203.078 355.687 214.385 362.21 225.693 368.74C219.208 364.994 212.716 361.248 206.231 357.502C211.285 360.417 216.339 363.333 221.385 366.248C229.801 371.11 238.216 375.963 246.639 380.825C253.931 385.033 261.216 389.24 268.516 393.456C270.862 394.81 273.17 396.194 275.516 397.556C276.693 398.233 277.87 398.902 279.078 399.556L279.178 399.617C279.178 399.617 279.216 399.64 279.231 399.648C289.816 405.763 300.408 411.879 311.001 417.987C325.678 426.456 444.824 495.279 445.239 495.487L445.278 495.51C446.762 497.448 448.247 499.387 449.724 501.325C453.355 506.079 456.993 510.833 460.624 515.579C465.016 521.325 474.731 534.033 475.193 534.64C475.224 534.702 488.785 552.679 490.793 555.048L490.878 555.156C490.939 555.233 491.016 555.302 491.116 555.356C491.424 555.533 491.87 555.579 492.185 555.371C493.508 554.494 640.708 457.31 640.778 457.263C640.878 457.225 640.955 457.179 641.001 457.117H640.97ZM670.893 324.31C671.239 324.51 671.593 324.717 671.939 324.917C671.593 324.717 671.239 324.51 670.885 324.31C669.531 325.21 668.17 326.102 666.808 327.002C663.139 329.425 659.462 331.848 655.793 334.271C651.354 337.202 646.916 340.133 642.462 343.063C638.624 345.602 634.778 348.14 630.931 350.679C629.654 351.517 628.385 352.363 627.108 353.202C626.693 353.479 626.108 353.763 625.67 354.079C621.939 351.925 618.216 349.779 614.493 347.625C608.216 344.002 601.939 340.379 595.662 336.748C594.408 336.025 593.162 335.302 591.916 334.587C593.278 333.687 594.639 332.787 596.001 331.887C599.662 329.471 603.316 327.056 606.97 324.648C611.416 321.717 615.855 318.779 620.301 315.848C624.139 313.31 627.985 310.779 631.824 308.24C633.093 307.402 634.347 306.571 635.608 305.74C636.085 305.425 636.608 305.125 637.078 304.794C642.455 307.902 664.885 320.848 670.885 324.31H670.893ZM630.424 352.44C629.078 353.333 627.731 354.217 626.385 355.11C626.193 355.24 625.878 355.271 625.608 355.217C625.885 355.271 626.193 355.24 626.385 355.11C627.731 354.225 629.078 353.333 630.424 352.448V352.44ZM597.808 329.271C601.031 327.148 604.247 325.017 607.47 322.894C611.908 319.963 616.354 317.033 620.801 314.094C623.078 312.587 625.362 311.087 627.639 309.579C625.362 311.087 623.078 312.594 620.801 314.094C616.354 317.025 611.916 319.963 607.47 322.894C604.247 325.025 601.024 327.148 597.808 329.271ZM635.908 304.11C634.524 305.025 633.147 305.933 631.762 306.848C631.501 307.017 631.247 307.187 630.985 307.363C627.593 309.602 624.208 311.833 620.816 314.071C616.378 317.002 611.939 319.933 607.485 322.863C603.647 325.402 599.801 327.94 595.955 330.479C594.678 331.317 593.408 332.163 592.124 333.002C591.708 333.279 591.131 333.571 590.693 333.879C586.624 331.533 582.554 329.179 578.485 326.833C571.701 322.917 564.908 318.994 558.124 315.079C556.755 314.287 555.385 313.502 554.024 312.71C555.385 311.81 556.747 310.91 558.108 310.01C561.77 307.594 565.424 305.179 569.078 302.771L582.408 293.971C586.247 291.433 590.093 288.902 593.931 286.363C595.201 285.525 596.454 284.694 597.716 283.863C598.193 283.548 598.716 283.248 599.185 282.917C611.424 289.987 623.662 297.048 635.908 304.117V304.11ZM591.816 333.217C591.316 333.533 590.785 333.848 590.339 334.194C590.785 333.848 591.308 333.533 591.816 333.217ZM552.447 312.317C552.993 311.894 553.662 311.517 554.262 311.117C555.524 310.287 556.785 309.456 558.047 308.617C561.885 306.079 565.731 303.548 569.578 301.002C571.139 299.971 572.701 298.94 574.27 297.902C572.708 298.933 571.139 299.963 569.578 301.002C565.731 303.54 561.893 306.079 558.047 308.617C556.778 309.456 555.524 310.287 554.262 311.117C553.662 311.51 552.993 311.887 552.447 312.317ZM588.001 276.448C591.339 278.379 594.678 280.302 598.016 282.233C598.27 282.379 598.524 282.525 598.785 282.679C598.531 282.533 598.278 282.387 598.016 282.24C596.631 283.156 595.254 284.063 593.87 284.979C593.801 285.025 593.724 285.071 593.655 285.117C593.724 285.071 593.793 285.025 593.87 284.979C595.254 284.063 596.639 283.156 598.016 282.24C596.655 283.14 595.301 284.033 593.939 284.925C590.27 287.348 586.601 289.771 582.924 292.194C578.478 295.125 574.039 298.056 569.593 300.987C565.754 303.525 561.908 306.063 558.062 308.594C556.785 309.433 555.516 310.279 554.239 311.117C553.824 311.394 553.239 311.679 552.801 311.994C551.178 311.056 549.547 310.117 547.924 309.179C543.508 306.633 539.101 304.087 534.685 301.54C529.378 298.471 524.062 295.41 518.747 292.34C514.131 289.671 509.516 287.01 504.901 284.348C503.378 283.463 501.847 282.587 500.316 281.702C499.878 281.448 499.408 281.11 498.916 280.825C498.839 280.779 498.762 280.74 498.693 280.702C500.039 279.817 501.385 278.925 502.724 278.04C506.385 275.625 510.039 273.21 513.693 270.802L527.024 262.002C530.862 259.463 534.708 256.933 538.547 254.394C538.555 254.394 538.57 254.379 538.578 254.371C540.293 253.24 542.193 252.148 543.808 250.956C558.539 259.463 573.262 267.963 587.993 276.471L588.001 276.448ZM516.101 269.187C519.747 266.779 523.401 264.371 527.047 261.963C530.762 259.517 534.47 257.071 538.178 254.625C534.47 257.071 530.762 259.525 527.047 261.963C523.401 264.371 519.755 266.779 516.101 269.187ZM502.993 227.371C508.501 230.556 514.016 233.733 519.524 236.917C527.224 241.363 534.931 245.81 542.631 250.256C541.27 251.148 539.916 252.048 538.555 252.948C534.885 255.371 531.208 257.794 527.539 260.217C523.101 263.148 518.662 266.079 514.208 269.01C510.37 271.548 506.524 274.087 502.678 276.625C501.401 277.463 500.124 278.302 498.847 279.148C498.431 279.425 497.855 279.71 497.416 280.025C493.024 277.487 488.631 274.948 484.239 272.417C476.916 268.187 469.585 263.956 462.262 259.725C460.785 258.871 459.308 258.017 457.831 257.171C459.193 256.271 460.555 255.371 461.916 254.479C465.578 252.063 469.231 249.648 472.885 247.24C477.331 244.31 502.524 227.71 502.993 227.387C502.808 227.279 502.808 227.279 502.993 227.387V227.371ZM501.824 226.694C501.724 226.763 501.616 226.833 501.516 226.894C501.616 226.825 501.724 226.756 501.824 226.694ZM462.185 203.81C475.401 211.44 488.608 219.063 501.824 226.694C500.462 227.587 499.101 228.487 497.747 229.379C494.078 231.802 490.408 234.225 486.731 236.648C482.285 239.579 477.847 242.51 473.401 245.44C469.554 247.971 465.708 250.51 461.87 253.048C460.593 253.887 459.324 254.733 458.047 255.571C457.631 255.848 457.047 256.133 456.608 256.448C452.216 253.91 447.824 251.379 443.431 248.84C436.108 244.61 428.778 240.379 421.455 236.148C419.978 235.294 418.501 234.44 417.024 233.594C418.385 232.694 419.747 231.794 421.108 230.902C424.77 228.487 428.424 226.071 432.078 223.663L445.408 214.863C449.247 212.325 461.716 204.133 462.185 203.81ZM450.024 196.787C452.916 198.456 458.562 201.717 461.016 203.133C460.424 203.525 449.355 210.825 445.924 213.087C441.485 216.017 437.039 218.948 432.593 221.879C428.755 224.417 424.908 226.956 421.062 229.487C419.785 230.325 418.516 231.171 417.239 232.01C416.824 232.287 416.239 232.571 415.801 232.887C414.893 232.363 413.985 231.84 413.078 231.31C410.031 229.548 406.978 227.794 403.931 226.033C399.447 223.44 394.962 220.856 390.47 218.256C385.001 215.102 379.531 211.94 374.055 208.779C368.039 205.302 362.016 201.833 356.008 198.356C355.147 197.856 354.278 197.356 353.416 196.856L398.555 167.056C415.708 176.963 432.862 186.863 450.024 196.771V196.787ZM336.839 131.448C353.301 140.948 369.754 150.456 386.216 159.956C389.954 162.117 393.693 164.271 397.431 166.433L352.293 196.233C347.454 193.44 342.616 190.648 337.778 187.848C332.139 184.594 326.493 181.333 320.854 178.079C316.07 175.317 311.278 172.548 306.493 169.787C303.062 167.81 299.631 165.825 296.208 163.848C295.139 163.233 294.07 162.61 293.001 161.994C292.631 161.787 292.27 161.548 291.893 161.325C291.831 161.287 291.77 161.256 291.701 161.217C293.055 160.325 294.408 159.433 295.762 158.533C299.424 156.117 303.078 153.702 306.731 151.294C311.178 148.363 315.624 145.425 320.062 142.494C323.901 139.956 327.747 137.425 331.585 134.887C332.855 134.048 334.108 133.217 335.37 132.387C335.847 132.071 336.37 131.771 336.839 131.44L336.462 131.225C336.585 131.294 336.716 131.371 336.839 131.44V131.448ZM158.639 184.14C158.639 184.14 180.639 196.84 180.808 196.94C174.97 200.794 161.978 209.371 161.308 209.817C154.67 205.987 148.039 202.156 141.408 198.325C140.655 197.894 139.901 197.456 139.147 197.017C144.685 193.363 158.647 184.14 158.647 184.14H158.639ZM138.131 197.687C144.762 201.517 159.539 210.048 160.293 210.487C154.462 214.34 141.462 222.917 140.793 223.363C134.631 219.81 118.624 210.563 118.624 210.563C119.308 210.11 138.124 197.687 138.124 197.687H138.131ZM92.9853 227.494L117.616 211.233C121.354 213.394 125.101 215.556 128.839 217.717C132.378 219.763 145.608 227.394 145.608 227.394C142.062 229.74 134.185 234.933 133.801 235.187L132.047 234.163C134.893 232.287 141.439 227.963 141.862 227.687C142.193 227.471 142.062 227.194 141.778 227.033C141.485 226.863 141.039 226.81 140.708 227.025C137.708 229.002 131.17 233.325 130.901 233.502L129.147 232.479C131.247 231.094 136.07 227.91 136.385 227.702C136.716 227.487 136.585 227.21 136.301 227.048C136.008 226.879 135.562 226.825 135.231 227.04C132.985 228.525 128.162 231.71 127.993 231.817L126.231 230.794C126.57 230.571 130.693 227.848 130.901 227.71C131.224 227.494 131.101 227.217 130.816 227.056C130.524 226.887 130.078 226.833 129.747 227.048C128.301 228.002 125.347 229.948 125.085 230.125L123.331 229.102C123.947 228.694 125.324 227.787 125.424 227.725C125.678 227.556 125.678 227.248 125.378 227.071C125.378 227.071 125.362 227.063 125.355 227.056C125.031 226.879 124.562 226.871 124.27 227.056C123.578 227.517 122.878 227.979 122.185 228.433L116.947 225.387C116.654 225.217 116.208 225.163 115.878 225.379C112.139 227.848 103.878 233.302 103.493 233.556L92.9853 227.494ZM114.793 240.079L113.393 239.271C116.985 236.894 124.862 231.702 125.201 231.479C125.793 231.817 126.378 232.156 126.962 232.494C126.985 232.479 126.985 232.479 126.962 232.494C123.408 234.84 119.862 237.187 116.308 239.525C115.924 239.779 115.539 240.033 115.154 240.287C115.031 240.217 114.916 240.148 114.793 240.079ZM118.354 228.779C118.693 228.556 119.031 228.333 119.378 228.11C119.962 228.448 120.547 228.787 121.139 229.125C117.593 231.471 114.039 233.817 110.485 236.156C110.101 236.41 109.716 236.663 109.331 236.917C109.254 236.871 107.57 235.902 107.57 235.902C111.162 233.525 114.762 231.156 118.354 228.779ZM106.408 235.24L104.647 234.225C108.239 231.856 111.839 229.479 115.431 227.102C115.77 226.879 116.108 226.656 116.447 226.433C117.031 226.771 117.624 227.11 118.208 227.448C118.208 227.448 118.208 227.448 118.216 227.448C118.216 227.448 118.216 227.448 118.208 227.448C114.662 229.794 106.785 234.987 106.401 235.24H106.408ZM121.262 230.463C121.601 230.24 121.939 230.017 122.278 229.794C122.862 230.133 123.447 230.471 124.039 230.81C120.493 233.156 116.939 235.502 113.385 237.84C113.001 238.094 112.616 238.348 112.231 238.602L110.47 237.587C114.062 235.217 117.662 232.84 121.255 230.463H121.262ZM128.116 233.156L129.878 234.171C126.324 236.517 118.455 241.71 118.07 241.963L116.308 240.948C119.901 238.579 127.778 233.379 128.116 233.156ZM119.224 242.633C122.816 240.263 130.693 235.063 131.031 234.84C131.062 234.825 131.062 234.825 131.031 234.84C131.093 234.871 131.147 234.91 131.208 234.94C131.739 235.248 132.27 235.548 132.793 235.856C129.247 238.202 125.693 240.548 122.139 242.887C121.754 243.14 121.37 243.394 120.985 243.648L119.224 242.633ZM251.578 383.394C251.547 383.51 251.608 383.633 251.724 383.725C251.608 383.625 251.554 383.51 251.578 383.394ZM251.854 383.094C251.978 383.002 252.108 382.91 252.239 382.817C235.431 373.11 218.624 363.41 201.816 353.71C199.239 352.225 196.662 350.733 194.093 349.248C193.455 348.879 192.824 348.517 192.185 348.148C176.547 339.117 160.908 330.087 145.262 321.056C144.693 320.725 144.124 320.394 143.547 320.071C143.239 319.894 142.931 319.717 142.624 319.54C126.985 310.51 111.347 301.479 95.7083 292.448C95.3083 292.217 94.893 291.91 94.4468 291.656C94.4007 291.625 94.3545 291.602 94.3007 291.579C96.2391 290.302 98.1776 289.017 100.116 287.74C105.224 284.371 110.324 281.002 115.431 277.625L133.954 265.394C139.285 261.871 157.193 250.071 157.355 249.971C158.793 250.802 205.631 277.91 205.678 277.933C204.901 278.44 189.647 288.517 184.547 291.887C178.37 295.963 172.201 300.04 166.024 304.117C160.685 307.64 155.347 311.163 150.008 314.687C148.255 315.848 146.493 317.002 144.739 318.163C144.17 318.54 143.57 318.902 142.993 319.287C142.87 319.371 142.747 319.456 142.624 319.54C142.931 319.717 143.239 319.894 143.547 320.071C144.116 320.402 144.685 320.733 145.262 321.063C144.862 320.833 144.447 320.525 144.001 320.271C143.955 320.24 143.908 320.217 143.855 320.194C145.793 318.917 147.731 317.633 149.67 316.356C154.778 312.987 159.878 309.617 164.985 306.24C171.162 302.163 177.331 298.087 183.508 294.01C188.839 290.487 206.747 278.687 206.908 278.587C208.347 279.417 245.601 300.925 249.724 303.31C251.093 304.102 252.462 304.887 253.824 305.679C254.224 305.91 255.185 306.525 255.231 306.556C253.293 307.833 192.293 348.079 192.17 348.163C192.808 348.533 193.439 348.894 194.078 349.263C193.847 349.133 193.608 348.971 193.362 348.825C195.308 347.54 256.293 307.294 256.454 307.194C259.17 308.763 261.878 310.325 264.585 311.887C271.547 315.91 278.508 319.925 285.47 323.94C293.885 328.802 302.301 333.656 310.716 338.517L315.339 341.187C313.385 342.479 311.424 343.771 309.47 345.063C304.362 348.433 299.255 351.81 294.155 355.179L275.631 367.41C270.293 370.933 264.955 374.456 259.616 377.979C257.862 379.14 256.101 380.302 254.347 381.463C253.655 381.917 252.901 382.363 252.231 382.833C252.101 382.925 251.978 383.017 251.847 383.11L251.854 383.094ZM386.101 289.994C391.185 292.933 396.27 295.871 401.354 298.802C403.047 299.779 404.739 300.756 406.424 301.733C406.947 302.04 407.462 302.363 408.001 302.671C408.27 302.825 408.539 302.979 408.816 303.117L408.916 303.179C408.739 303.079 408.662 302.963 408.655 302.848C408.678 302.971 418.131 308.494 422.731 311.156C430.062 315.387 489.447 349.671 492.878 351.648C470.178 366.633 419.424 400.125 419.508 400.063C418.801 399.656 415.693 397.863 414.847 397.371C414.734 397.448 414.734 397.448 414.847 397.371C416.885 396.025 480.093 354.371 480.893 353.763L481.008 353.687C481.339 353.471 481.208 353.194 480.924 353.025C480.639 352.856 480.185 352.802 479.855 353.025C477.647 354.479 414.385 396.194 413.678 396.694C412.431 395.979 409.331 394.187 409.016 394.002C410.885 392.771 469.216 354.333 469.947 353.771L470.055 353.702C470.378 353.487 470.254 353.21 469.97 353.048C469.678 352.879 469.231 352.825 468.901 353.04C466.862 354.387 408.493 392.879 407.847 393.325C406.293 392.433 404.747 391.533 403.193 390.64C404.885 389.525 458.331 354.302 459.001 353.794L459.093 353.733C459.416 353.517 459.293 353.24 459.001 353.079C458.708 352.917 458.262 352.856 457.931 353.071C456.07 354.302 405.355 387.787 403.816 388.802C403.224 389.194 402.593 389.571 402.008 389.971C401.942 390.017 401.942 390.017 402.008 389.971C401.001 389.387 399.985 388.802 398.978 388.217C398.439 387.902 397.901 387.594 397.355 387.279C398.885 386.271 400.416 385.256 401.947 384.248C406.031 381.548 447.424 354.287 448.039 353.817L448.131 353.756C448.462 353.54 448.331 353.263 448.047 353.102C447.754 352.933 447.308 352.879 446.978 353.094C445.278 354.217 406.27 379.971 402.001 382.787C400.601 383.71 399.193 384.64 397.793 385.563C397.27 385.91 396.693 386.248 396.178 386.602C396.17 386.602 396.155 386.617 396.147 386.625C396.155 386.625 396.17 386.61 396.178 386.602C392.647 384.563 389.124 382.533 385.601 380.494C380.693 377.663 375.785 374.825 370.878 371.994C365.947 369.148 297.854 329.833 289.439 324.979C284.601 322.187 279.762 319.387 274.916 316.594C277.216 315.071 279.516 313.556 281.824 312.033C287.755 308.117 293.685 304.202 299.616 300.287C306.77 295.563 345.501 270.125 348.285 268.171C348.367 268.115 348.367 268.115 348.285 268.171C350.124 269.233 380.201 286.594 386.085 289.994H386.101ZM611.593 385.102C604.762 389.61 597.416 394.463 594.431 396.433C591.616 394.81 571.578 383.233 564.362 379.071C564.085 378.91 563.801 378.748 563.524 378.587L566.754 376.456C574.093 371.61 591.839 359.894 593.362 358.887C596.793 360.863 600.216 362.84 603.647 364.825C609.385 368.14 615.131 371.456 620.878 374.771C622.008 375.425 623.139 376.079 624.27 376.733C622.001 378.233 617.347 381.302 612.308 384.633C611.831 384.948 611.347 385.263 610.87 385.579L611.593 385.102ZM578.808 367.063C573.331 370.679 567.847 374.302 562.37 377.917C562.585 378.04 562.585 378.04 562.37 377.917C557.893 375.333 553.424 372.748 548.947 370.171C550.024 369.463 563.078 360.84 568.524 357.24C572.585 359.587 576.647 361.933 580.708 364.279C581.116 364.517 581.531 364.756 581.947 364.994C580.901 365.687 579.855 366.379 578.808 367.071V367.063ZM547.801 369.502C547.939 369.584 547.939 369.584 547.801 369.502C544.662 367.687 521.916 354.54 513.993 349.956C515.062 349.248 542.285 331.279 543.808 330.271C547.555 332.433 576.385 349.079 577.639 349.802C573.17 352.748 553.278 365.887 547.801 369.502ZM512.839 349.294C509.008 347.079 504.647 344.594 504.647 344.594C504.339 344.417 503.839 344.417 503.562 344.594C503.008 344.963 499.362 347.363 493.893 350.971C491.093 349.356 451.431 326.394 451.37 326.363C451.354 326.371 451.354 326.371 451.37 326.363C455.824 323.425 489.808 300.987 491.331 299.979C492.878 300.871 541.939 329.263 542.408 329.533C542.47 329.571 518.301 345.679 512.831 349.294H512.839ZM476.785 308.163C469.439 313.01 462.101 317.856 454.755 322.71C453.231 323.717 451.701 324.725 450.17 325.733C445.754 323.187 441.347 320.64 436.931 318.087C429.608 313.856 422.27 309.625 414.947 305.394C413.47 304.54 411.993 303.687 410.516 302.833C414.985 299.887 419.447 296.933 423.916 293.987C431.254 289.14 438.601 284.294 445.947 279.44C447.47 278.433 449.001 277.425 450.531 276.417C454.947 278.963 459.362 281.51 463.77 284.063C471.101 288.294 478.431 292.525 485.762 296.756C487.239 297.61 488.716 298.463 490.193 299.31C485.724 302.256 481.254 305.21 476.793 308.156L476.785 308.163ZM413.947 299.14C413.185 299.64 412.424 300.148 411.662 300.648C410.893 301.156 410.131 301.663 409.362 302.163C410.001 301.74 410.639 301.317 411.285 300.894C410.478 301.425 409.67 301.963 408.862 302.494C409.031 302.387 409.201 302.271 409.37 302.156C407.531 301.094 405.685 300.033 403.847 298.963C398.97 296.148 394.085 293.325 389.201 290.51C383.324 287.117 349.47 267.502 349.362 267.448C353.808 264.51 358.262 261.571 362.708 258.633C370.047 253.787 377.393 248.94 384.739 244.087C386.262 243.079 387.793 242.071 389.324 241.063C391.162 242.125 393.008 243.187 394.847 244.256C399.724 247.071 404.608 249.894 409.493 252.71C415.37 256.102 421.247 259.494 427.131 262.894C432.216 265.833 449.224 275.717 449.331 275.771C448.031 276.633 421.301 294.279 413.955 299.133L413.947 299.14ZM338.201 354.371C337.175 353.781 337.175 353.781 338.201 354.371ZM279.624 398.625C274.593 395.725 269.57 392.817 264.547 389.917C260.831 387.771 257.124 385.633 253.408 383.487L252.901 383.817C252.754 383.917 252.578 383.948 252.408 383.948C252.585 383.948 252.754 383.91 252.901 383.817L253.408 383.479C255.362 382.187 257.324 380.894 259.278 379.602C264.385 376.233 269.485 372.863 274.593 369.487C280.77 365.41 286.947 361.333 293.116 357.256C298.454 353.733 303.793 350.21 309.124 346.687C309.124 346.687 315.839 342.302 316.516 341.833C316.603 341.771 316.603 341.771 316.516 341.833C317.585 342.448 342.462 356.84 342.708 356.979C340.762 358.263 326.647 367.587 321.547 370.948C315.37 375.025 309.193 379.102 303.024 383.179C297.685 386.702 292.347 390.225 287.008 393.748C285.254 394.91 283.493 396.071 281.739 397.225C281.047 397.679 280.301 398.125 279.624 398.602V398.625ZM280.801 399.31C280.647 399.217 280.485 399.125 280.331 399.04C280.485 399.133 280.647 399.225 280.801 399.31C282.754 398.017 343.231 358.14 343.908 357.663C346.462 359.14 419.116 401.063 419.116 401.063C419.047 401.025 419.047 401.025 419.116 401.063C419.408 401.233 419.855 401.287 420.185 401.071C422.993 399.217 503.985 345.779 504.247 345.61C507.047 347.225 593.124 396.956 593.393 397.117C592.87 397.463 451.316 490.925 451.316 490.925C449.793 491.933 446.062 494.356 445.778 494.556C442.97 492.933 296.093 408.14 280.801 399.31ZM446.808 495.333C448.016 494.54 593.878 398.294 594.347 397.971C595.678 399.71 598.931 403.971 599.231 404.356C599.231 404.356 506.901 465.333 506.539 465.794C504.785 468.033 488.778 488.448 488.77 488.463C488.585 488.594 457.416 508.594 457.07 508.817C455.455 506.702 447.016 495.54 446.808 495.333ZM458.008 510.04C462.601 507.094 467.193 504.148 471.785 501.202C477.531 497.51 483.285 493.817 489.031 490.133C490.07 489.463 490.678 488.502 491.439 487.525C491.439 487.525 506.924 467.779 507.593 466.925C507.639 466.863 507.839 466.64 507.854 466.594C510.37 464.917 600.039 405.656 600.162 405.579C601.616 407.479 603.07 409.387 604.524 411.287C602.139 412.879 533.608 458.687 530.578 460.787C529.693 461.402 513.631 482.017 509.855 487.187C509.839 487.202 509.839 487.21 509.831 487.217C509.701 487.302 463.293 516.517 463.062 516.663C461.378 514.456 459.685 512.248 458.001 510.04H458.008ZM464.016 517.894C467.593 515.64 510.262 488.779 510.262 488.779C511.139 488.225 531.308 462.187 531.339 462.14C531.355 462.133 531.362 462.125 531.378 462.117C531.747 461.887 605.324 412.617 605.462 412.517C606.716 414.163 609.839 418.24 610.139 418.64C610.139 418.64 610.139 418.64 610.131 418.64C605.916 421.41 574.516 441.833 573.17 442.902C572.87 443.14 572.655 443.471 572.416 443.779C571.816 444.571 549.301 474.363 548.793 475.033L548.701 475.156C548.631 475.248 470.147 525.717 470.093 525.848C468.062 523.194 466.039 520.548 464.008 517.894H464.016ZM470.924 526.94C471.001 526.917 471.085 526.894 471.162 526.84C473.562 525.302 544.701 479.563 548.562 477.079C549.139 476.71 549.654 476.425 550.07 475.879C551.431 474.087 572.078 446.763 573.67 444.648C573.778 444.502 573.908 444.356 574.016 444.194C574.454 444.063 610.585 420.171 610.901 419.963C610.962 419.925 611.008 419.879 611.055 419.833C614.67 424.556 618.278 429.279 621.885 434.01C621.862 434.025 621.831 434.033 621.808 434.048C620.501 434.94 477.608 532.025 475.77 533.294C474.147 531.171 472.531 529.056 470.908 526.933L470.924 526.94ZM486.101 546.794C483.016 542.763 479.931 538.725 476.847 534.694C476.801 534.64 476.762 534.579 476.716 534.525C477.839 533.763 620.462 436.863 622.347 435.556C622.431 435.502 622.508 435.44 622.593 435.387C622.678 435.333 622.739 435.263 622.793 435.194C624.339 437.217 625.893 439.248 627.439 441.271C623.678 443.717 584.393 469.063 583.362 469.894C582.87 470.294 571.562 488.694 570.77 489.971C570.585 490.263 570.362 490.556 570.208 490.871C570.024 490.963 569.747 491.21 569.647 491.279C569.139 491.61 568.639 491.948 568.139 492.279C563.854 495.125 489.585 544.479 486.408 546.587C486.308 546.656 486.201 546.725 486.101 546.787V546.794ZM491.739 554.163C490.408 552.425 487.278 548.325 487.039 548.017C487.039 548.017 569.216 493.41 570.462 492.587C571.193 492.102 571.531 491.663 572.008 490.902C575.824 484.763 583.947 471.702 584.193 471.31C584.224 471.263 584.262 471.21 584.301 471.148C584.57 470.987 628.055 442.71 628.324 442.533C628.347 442.517 628.362 442.502 628.378 442.487C630.208 444.879 637.347 454.463 639.301 456.794C638.093 457.594 492.208 553.84 491.739 554.171V554.163ZM636.385 450.81C632.755 446.063 629.124 441.31 625.485 436.556C621.67 431.579 617.862 426.594 614.054 421.602C613.478 420.856 612.316 419.325 612.308 419.317C608.501 414.325 597.393 399.54 595.424 397.217C596.555 396.471 623.908 378.41 625.431 377.402C626.97 378.294 676.631 407.025 676.701 407.063C672.254 410.002 638.27 432.44 636.739 433.448C635.193 432.556 614.754 420.756 612.339 419.356C612.908 420.102 613.485 420.856 614.054 421.602C614.939 422.11 635.455 434.017 636.208 434.394L636.301 434.448C636.608 434.625 637.108 434.633 637.385 434.448C642.024 431.387 676.716 408.479 678.408 407.363C678.685 407.179 678.647 406.871 678.339 406.694C676.601 405.687 626.708 376.833 625.962 376.456C625.962 376.456 625.07 376.225 624.785 376.394C625.062 376.217 625.555 376.217 625.862 376.394C622.239 374.302 618.616 372.21 615.001 370.125C609.262 366.81 603.516 363.494 597.77 360.179C596.439 359.41 595.116 358.648 593.793 357.879C593.485 357.702 592.985 357.702 592.708 357.879C592.024 358.333 591.339 358.787 590.654 359.233C589.147 358.363 585.647 356.34 585.401 356.202C584.662 355.771 583.647 356.44 584.385 356.871C586.085 357.848 589.585 359.871 589.639 359.902C589.124 360.24 588.601 360.587 588.085 360.925C588.278 361.033 580.278 356.417 579.916 356.21C579.17 355.779 578.162 356.448 578.901 356.879C581.447 358.348 583.993 359.817 586.547 361.294C586.724 361.394 586.901 361.494 587.07 361.594C586.555 361.933 586.039 362.279 585.524 362.617C582.316 360.771 574.931 356.502 574.439 356.217C573.701 355.787 572.685 356.456 573.424 356.887C576.824 358.848 580.224 360.81 583.616 362.771C583.916 362.94 584.216 363.117 584.508 363.287C584.601 363.338 584.601 363.338 584.508 363.287C583.993 363.625 583.478 363.971 582.962 364.31C578.901 361.963 574.839 359.617 570.778 357.271C570.37 357.033 569.954 356.794 569.539 356.556C569.411 356.484 569.411 356.484 569.539 356.556C571.093 355.533 577.593 351.24 579.285 350.117C579.562 349.933 579.531 349.633 579.216 349.448C575.278 347.171 571.339 344.902 567.401 342.625C561.124 339.002 554.847 335.379 548.562 331.748C547.124 330.917 545.678 330.087 544.239 329.248C544.137 329.187 544.137 329.187 544.239 329.248C542.508 328.248 540.762 327.24 539.031 326.24C534.855 323.833 530.685 321.425 526.516 319.01C521.47 316.094 452.639 276.356 450.962 275.387C450.962 275.387 435.101 266.225 430.216 263.41C424.339 260.017 418.462 256.625 412.578 253.225C407.493 250.287 402.408 247.348 397.324 244.417C395.631 243.44 393.947 242.463 392.247 241.487C391.724 241.187 391.208 240.856 390.67 240.548C390.401 240.394 390.131 240.24 389.855 240.102L389.747 240.04C389.431 239.863 388.939 239.863 388.662 240.04C384.024 243.102 379.393 246.163 374.755 249.225C367.408 254.071 360.07 258.917 352.724 263.771C351.101 264.84 349.478 265.917 347.855 266.987C347.839 267.002 347.77 267.04 347.631 267.133C345.162 268.763 308.124 293.217 300.978 297.94C294.793 302.025 288.616 306.102 282.431 310.187C279.554 312.087 276.547 313.94 273.762 315.894C273.711 315.93 273.711 315.93 273.762 315.894C271.701 314.702 269.639 313.517 267.578 312.325C265.231 310.971 262.924 309.587 260.578 308.225C259.401 307.548 258.216 306.879 257.016 306.225L256.862 306.14C256.801 306.102 256.801 306.102 256.862 306.14C255.224 305.194 253.593 304.248 251.954 303.31C248.001 301.025 244.047 298.74 240.093 296.463C235.331 293.717 157.755 248.925 157.755 248.925C157.439 248.748 156.947 248.748 156.67 248.925C154.547 250.325 93.7237 290.433 93.0545 290.902C81.6083 284.294 42.5853 261.656 41.893 261.363C41.8468 261.34 41.8007 261.317 41.7545 261.294L91.9699 228.14C91.9699 228.14 125.085 247.263 126.37 248.002C127.108 248.433 128.131 247.763 127.385 247.333C125.639 246.325 123.885 245.31 122.139 244.302C125.731 241.925 146.424 228.263 146.77 228.04C147.085 228.225 150.585 230.24 152.016 231.071C152.755 231.502 153.778 230.833 153.031 230.402C151.855 229.717 141.955 224.002 141.955 224.002C147.793 220.148 173.97 202.863 179.97 198.902C180.631 198.463 181.293 198.025 181.962 197.587C184.955 199.31 187.947 201.04 190.931 202.763C195.301 205.287 199.67 207.81 204.039 210.333C205.447 211.148 206.824 212.017 208.247 212.833C208.801 213.148 209.355 213.463 209.924 213.763C205.708 216.548 201.493 219.333 197.278 222.117C192.801 225.071 188.331 228.025 183.855 230.979C182.37 231.956 180.878 232.94 179.393 233.925C178.701 234.387 177.931 234.825 177.293 235.31L177.201 235.371C176.924 235.556 176.955 235.856 177.27 236.04C180.378 237.833 226.816 264.648 235.824 269.848C243.562 274.317 251.308 278.787 259.047 283.256C261.562 284.71 264.039 286.202 266.562 287.656C267.824 288.387 269.093 289.102 270.393 289.81L270.547 289.902C270.862 290.079 271.355 290.079 271.631 289.902C273.424 288.717 275.208 287.54 277.001 286.356C281.293 283.525 285.593 280.679 289.885 277.848C295.054 274.433 300.231 271.017 305.401 267.602C309.878 264.648 314.347 261.694 318.824 258.74C320.308 257.763 321.793 256.779 323.285 255.794C323.978 255.333 324.747 254.894 325.385 254.41L325.478 254.348C330.116 251.287 334.747 248.225 339.385 245.163C346.724 240.317 354.07 235.471 361.416 230.617C363.108 229.502 364.808 228.379 366.508 227.256C366.662 227.156 366.716 227.04 366.701 226.925C366.701 226.81 366.624 226.694 366.439 226.587C363.331 224.794 360.224 222.994 357.116 221.202C349.708 216.925 342.301 212.648 334.893 208.371C325.893 203.171 316.885 197.979 307.885 192.779C300.139 188.31 292.393 183.84 284.654 179.363C282.139 177.91 279.662 176.417 277.139 174.963C275.878 174.233 274.608 173.517 273.308 172.817L273.162 172.733C272.854 172.556 272.354 172.556 272.078 172.733C267.439 175.794 262.808 178.856 258.17 181.917C250.824 186.763 243.485 191.61 236.139 196.463C234.447 197.587 232.747 198.702 231.055 199.825C229.262 201.01 227.478 202.187 225.685 203.371C221.385 206.21 217.093 209.048 212.801 211.879C212.193 212.279 211.585 212.679 210.978 213.079C209.431 212.187 207.885 211.294 206.339 210.402C202.17 207.994 197.993 205.587 193.824 203.179C188.77 200.263 169.939 189.387 165.57 186.863C164.162 186.056 162.785 185.187 161.362 184.363C160.816 184.048 160.255 183.733 159.685 183.44C171.208 175.833 182.731 168.225 194.255 160.617C214.431 147.294 234.616 133.971 254.793 120.648C261.493 116.225 268.193 111.802 274.893 107.379C277.001 105.987 279.101 104.602 281.216 103.202C282.093 102.617 283.77 101.879 284.385 101.148C288.647 103.61 292.908 106.063 297.17 108.525C309.147 115.44 321.124 122.356 333.101 129.271C333.962 129.763 334.816 130.263 335.678 130.756C334.293 131.671 332.916 132.579 331.531 133.494C327.878 135.91 324.216 138.325 320.562 140.733C316.116 143.663 311.678 146.602 307.231 149.533C303.385 152.071 299.547 154.61 295.701 157.148C294.431 157.987 293.178 158.817 291.916 159.648C291.316 160.04 290.647 160.417 290.101 160.848L290.024 160.902C289.747 161.087 289.778 161.387 290.093 161.571C291.208 162.217 292.331 162.863 293.455 163.51C296.501 165.271 299.554 167.025 302.601 168.787L316.062 176.556C321.531 179.717 327.008 182.879 332.478 186.033C338.493 189.502 344.508 192.979 350.524 196.456C356.601 199.963 362.67 203.471 368.739 206.971C374.385 210.233 424.639 239.248 429.247 241.902C436.57 246.133 456.247 257.487 456.247 257.494C460.847 260.148 497.047 281.048 497.047 281.048C498.885 282.11 511.385 289.325 515.793 291.871L552.424 313.017C552.424 313.017 560.993 317.963 565.27 320.433C572.062 324.356 578.847 328.271 585.639 332.194C587.193 333.094 588.754 333.994 590.308 334.894C590.308 334.894 590.308 334.894 590.316 334.894C590.247 334.856 590.193 334.802 590.155 334.756C590.193 334.81 590.247 334.856 590.316 334.894C594.254 337.171 598.193 339.44 602.131 341.717C608.408 345.34 614.685 348.963 620.962 352.594C622.401 353.425 623.847 354.256 625.285 355.094C627.601 356.433 629.916 357.771 632.224 359.102C637.785 362.31 643.347 365.525 648.908 368.733C655.662 372.633 662.416 376.533 669.17 380.433C674.985 383.787 680.801 387.148 686.616 390.502C688.539 391.61 690.454 392.717 692.37 393.825C692.97 394.171 693.562 394.54 694.17 394.894C694.478 395.071 694.785 395.24 695.101 395.402L695.224 395.471C695.531 395.648 696.031 395.648 696.308 395.471C697.831 394.463 699.362 393.456 700.893 392.448C704.57 390.025 708.239 387.602 711.916 385.179C716.355 382.248 720.801 379.317 725.247 376.387C729.085 373.848 732.939 371.317 736.778 368.779C738.493 367.648 740.393 366.556 742.016 365.363C741.624 365.133 741.224 364.91 740.831 364.679C739.47 365.571 738.108 366.471 736.754 367.363C733.085 369.787 729.408 372.21 725.739 374.633C721.293 377.563 716.855 380.494 712.408 383.425C708.57 385.963 704.724 388.502 700.878 391.033C699.601 391.871 698.331 392.717 697.055 393.556C696.639 393.833 696.055 394.117 695.616 394.433C693.508 393.217 691.408 392.002 689.301 390.787C683.739 387.579 678.185 384.371 672.624 381.156C665.87 377.256 659.116 373.356 652.362 369.456C646.547 366.102 640.731 362.74 634.908 359.379L629.162 356.063C628.562 355.717 627.97 355.371 627.37 355.033C627.216 354.948 627.062 354.84 626.908 354.74C628.262 353.848 629.616 352.948 630.97 352.056C634.631 349.64 638.285 347.225 641.939 344.817C646.385 341.879 650.824 338.948 655.27 336.017C658.77 333.702 662.278 331.394 665.778 329.079C662.285 331.387 658.785 333.694 655.293 335.994C651.378 338.579 647.462 341.163 643.555 343.748C647.47 341.163 651.385 338.579 655.293 335.994C659.131 333.456 662.985 330.925 666.824 328.387C668.539 327.256 670.439 326.163 672.055 324.971C681.524 330.44 690.985 335.902 700.454 341.371C711.185 347.571 721.916 353.763 732.655 359.963C735.378 361.54 738.108 363.11 740.831 364.687C741.224 364.917 757.255 374.171 761.07 376.371C753.147 381.602 653.27 447.548 640.385 456.056C639.047 454.302 637.708 452.548 636.37 450.802L636.385 450.81ZM240.431 205.887C247.839 210.163 255.247 214.44 262.654 218.717C271.662 223.917 280.662 229.117 289.67 234.317C297.408 238.787 305.154 243.256 312.893 247.725C315.408 249.179 317.885 250.671 320.408 252.125C321.67 252.856 322.939 253.571 324.239 254.271C322.939 253.571 321.67 252.848 320.408 252.125C321.531 252.771 322.654 253.41 323.801 254.033C322.185 255.102 320.57 256.171 318.954 257.233C314.654 260.071 310.362 262.91 306.07 265.74C300.893 269.156 295.724 272.571 290.554 275.987C286.078 278.94 281.608 281.894 277.131 284.848C275.647 285.825 274.162 286.81 272.67 287.794C272.154 288.133 271.439 288.487 270.924 288.879C268.024 287.21 265.131 285.54 262.247 283.863C254.839 279.587 247.431 275.31 240.024 271.033C231.016 265.833 222.016 260.64 213.016 255.44C205.27 250.971 197.524 246.502 189.785 242.025C187.224 240.54 184.647 239.063 182.085 237.579C181.293 237.125 180.501 236.663 179.716 236.21C179.447 236.056 179.178 235.871 178.893 235.702C180.508 234.64 182.116 233.571 183.724 232.51C188.016 229.671 192.316 226.84 196.608 224.002C201.778 220.587 206.955 217.171 212.124 213.756C216.601 210.802 221.07 207.848 225.547 204.894C227.031 203.917 228.516 202.933 230.008 201.948C230.524 201.61 231.239 201.256 231.755 200.863C234.647 202.533 237.539 204.202 240.431 205.879V205.887ZM232.731 200.156L246.108 191.325C253.447 186.479 260.793 181.633 268.139 176.779C269.662 175.771 271.193 174.763 272.724 173.756C275.639 175.44 278.547 177.117 281.462 178.802C288.87 183.079 296.278 187.356 303.685 191.633C312.685 196.833 321.693 202.025 330.701 207.233C338.439 211.702 346.185 216.171 353.924 220.64C356.439 222.094 358.916 223.587 361.439 225.04C362.555 225.687 363.685 226.325 364.831 226.956C360.37 229.902 355.908 232.848 351.439 235.794C344.093 240.64 336.754 245.487 329.408 250.34C327.885 251.348 326.355 252.356 324.824 253.363C321.908 251.679 319.001 250.002 316.085 248.317C308.678 244.04 301.27 239.763 293.862 235.487C284.862 230.287 275.854 225.087 266.854 219.894C259.108 215.425 251.362 210.956 243.624 206.479C241.062 204.994 238.493 203.517 235.924 202.033C235.131 201.579 234.339 201.117 233.555 200.663C233.285 200.51 233.016 200.325 232.731 200.156Z" fill="#200000"/>
<path d="M484.539 468.987C484.662 468.91 484.747 468.848 484.801 468.817C484.731 468.863 484.639 468.925 484.539 468.987Z" fill="#200000"/>
<path d="M760.024 425.571C759.893 425.494 759.716 425.448 759.485 425.448C756.77 425.448 754.062 425.456 751.347 425.463C750.931 425.463 750.601 425.679 750.631 425.94C750.808 427.61 750.978 429.287 751.155 430.956C751.17 431.094 751.262 431.202 751.393 431.279C751.831 431.533 752.739 431.425 752.693 430.956L752.224 426.41C754.685 426.41 757.139 426.402 759.601 426.394C760.362 426.394 760.478 425.825 760.039 425.571H760.024Z" fill="#200000"/>
</svg>
